<svg width="192" height="19" viewBox="0 0 192 19" fill="none" xmlns="http://www.w3.org/2000/svg">
<path d="M4.08239 9.00002C4.08239 8.0682 4.30966 7.21877 4.7642 6.45173C5.21875 5.68468 5.82955 5.07389 6.59659 4.61934C7.36364 4.16479 8.21307 3.93752 9.14489 3.93752C9.90625 3.93752 10.608 4.09377 11.25 4.40627C11.892 4.71877 12.429 5.14775 12.8608 5.6932C13.2983 6.23298 13.5909 6.84945 13.7386 7.54264H12.1534C11.983 6.92332 11.6193 6.41764 11.0625 6.02559C10.5057 5.63354 9.86648 5.43752 9.14489 5.43752C8.49148 5.43752 7.89489 5.59945 7.35511 5.92332C6.81534 6.2415 6.38352 6.67048 6.05966 7.21025C5.74148 7.74434 5.58239 8.34093 5.58239 9.00002C5.58239 9.65343 5.74148 10.25 6.05966 10.7898C6.38352 11.3296 6.81534 11.7614 7.35511 12.0852C7.89489 12.4034 8.49148 12.5625 9.14489 12.5625C9.86648 12.5625 10.4858 12.3665 11.0028 11.9745C11.5199 11.5824 11.8665 11.0767 12.0426 10.4574H13.6193C13.4773 11.1506 13.1989 11.7699 12.7841 12.3154C12.3693 12.8551 11.8494 13.2813 11.2244 13.5938C10.5994 13.9063 9.90625 14.0625 9.14489 14.0625C8.21307 14.0625 7.36364 13.8352 6.59659 13.3807C5.82955 12.9262 5.21875 12.3154 4.7642 11.5483C4.30966 10.7813 4.08239 9.93184 4.08239 9.00002ZM9.00852 18C7.76989 18 6.60511 17.7671 5.5142 17.3012C4.42898 16.8352 3.47159 16.1904 2.64205 15.3665C1.81818 14.537 1.17045 13.5796 0.698864 12.4943C0.232955 11.4091 0.00284094 10.2443 0.00852281 9.00002C0.0142046 7.7557 0.25 6.59093 0.715909 5.5057C1.1875 4.42048 1.83523 3.46593 2.65909 2.64207C3.48295 1.81252 4.4375 1.16479 5.52273 0.698885C6.60795 0.232976 7.76989 2.19345e-05 9.00852 2.19345e-05C10.2528 2.19345e-05 11.4176 0.232976 12.5028 0.698885C13.5938 1.16479 14.5483 1.81252 15.3665 2.64207C16.1903 3.46593 16.8352 4.42048 17.3011 5.5057C17.767 6.59093 18.0028 7.7557 18.0085 9.00002C18.0142 10.2443 17.7841 11.4091 17.3182 12.4943C16.8523 13.5796 16.2074 14.537 15.3835 15.3665C14.5597 16.1904 13.6023 16.8352 12.5114 17.3012C11.4205 17.7671 10.2528 18 9.00852 18ZM9.00852 16.5C10.0483 16.5 11.0227 16.3068 11.9318 15.9205C12.8409 15.5284 13.6364 14.9915 14.3182 14.3097C15.0057 13.6222 15.5426 12.8239 15.929 11.9148C16.321 11.0057 16.5142 10.037 16.5085 9.00854C16.5028 7.96877 16.304 6.99434 15.9119 6.08525C15.5256 5.17616 14.9886 4.3807 14.3011 3.69889C13.6193 3.01139 12.8267 2.47445 11.9233 2.08809C11.0199 1.69604 10.0483 1.50002 9.00852 1.50002C7.97443 1.50002 7.00568 1.69604 6.10227 2.08809C5.19886 2.47445 4.40341 3.01139 3.71591 3.69889C3.03409 4.38639 2.49716 5.18468 2.10511 6.09377C1.71307 6.99718 1.5142 7.96877 1.50852 9.00854C1.50284 10.037 1.69318 11.0057 2.07955 11.9148C2.47159 12.8182 3.01136 13.6137 3.69886 14.3012C4.38636 14.983 5.18466 15.5199 6.09375 15.912C7.00284 16.304 7.97443 16.5 9.00852 16.5ZM30.6541 0.272749V17.7273H29.0604V0.272749H30.6541ZM43.7749 7.50854L42.3857 7.90059C42.2493 7.50854 42.0561 7.15343 41.8061 6.83525C41.5561 6.51707 41.2294 6.26423 40.826 6.07673C40.4283 5.88923 39.9339 5.79548 39.343 5.79548C38.4567 5.79548 37.7294 6.0057 37.1612 6.42616C36.593 6.84661 36.3089 7.38923 36.3089 8.054C36.3089 8.6165 36.5021 9.07389 36.8885 9.42616C37.2805 9.77275 37.8828 10.0483 38.6953 10.2529L40.6726 10.7387C41.7692 11.0057 42.5902 11.429 43.1357 12.0085C43.6868 12.5881 43.9624 13.3154 43.9624 14.1904C43.9624 14.929 43.7578 15.5852 43.3487 16.1591C42.9396 16.733 42.3686 17.1847 41.6357 17.5142C40.9084 17.8381 40.0646 18 39.1044 18C37.826 18 36.772 17.7131 35.9425 17.1392C35.1129 16.5597 34.5817 15.7245 34.3487 14.6335L35.8061 14.2756C35.9936 15.054 36.3601 15.6421 36.9055 16.0398C37.4567 16.4375 38.1811 16.6364 39.0788 16.6364C40.0845 16.6364 40.8885 16.412 41.4908 15.9631C42.093 15.5085 42.3942 14.9404 42.3942 14.2585C42.3942 13.7301 42.218 13.287 41.8658 12.929C41.5135 12.5654 40.9794 12.2983 40.2635 12.1279L38.1243 11.6165C36.9879 11.3438 36.147 10.912 35.6016 10.321C35.0561 9.73014 34.7834 8.99718 34.7834 8.12218C34.7834 7.40059 34.9794 6.76707 35.3714 6.22161C35.7635 5.67048 36.3033 5.23866 36.9908 4.92616C37.6783 4.61366 38.4624 4.45741 39.343 4.45741C40.5419 4.45741 41.4993 4.73014 42.2152 5.27559C42.9368 5.81536 43.4567 6.55968 43.7749 7.50854ZM52.4403 4.63639V5.95741H46.1932V4.63639H52.4403ZM48.1449 1.50002H49.6705V14.3097C49.6705 14.8551 49.7642 15.2841 49.9517 15.5966C50.1392 15.9034 50.3835 16.1222 50.6847 16.2529C50.9858 16.3779 51.3068 16.4404 51.6477 16.4404C51.8466 16.4404 52.017 16.429 52.1591 16.4063C52.3011 16.3779 52.4261 16.3495 52.5341 16.321L52.858 17.6932C52.7102 17.75 52.5284 17.8012 52.3125 17.8466C52.0966 17.8977 51.8295 17.9233 51.5114 17.9233C50.9545 17.9233 50.4176 17.8012 49.9006 17.5568C49.3892 17.3125 48.9688 16.9489 48.6392 16.4659C48.3097 15.983 48.1449 15.3835 48.1449 14.6676V1.50002ZM68.2777 5.72729C68.1186 5.14775 67.8857 4.60513 67.5788 4.09945C67.272 3.58809 66.8913 3.14207 66.4368 2.76139C65.9879 2.37502 65.468 2.07388 64.8771 1.85798C64.2919 1.64207 63.6385 1.53411 62.9169 1.53411C61.7805 1.53411 60.7635 1.82957 59.8658 2.42048C58.968 3.01138 58.2578 3.86366 57.7351 4.97729C57.218 6.09093 56.9595 7.43184 56.9595 9.00002C56.9595 10.5625 57.2209 11.9006 57.7436 13.0142C58.2663 14.1279 58.9822 14.983 59.8913 15.5796C60.8061 16.1705 61.8516 16.4659 63.0277 16.4659C64.1016 16.4659 65.0504 16.2273 65.8743 15.75C66.6982 15.2727 67.3402 14.5909 67.8004 13.7046C68.2663 12.8182 68.4936 11.7642 68.4822 10.5426L68.9936 10.7046H63.4027V9.27275H70.0334V10.7046C70.0334 12.1932 69.7322 13.4801 69.13 14.5654C68.5277 15.6506 67.701 16.4887 66.6499 17.0796C65.5987 17.6705 64.3913 17.9659 63.0277 17.9659C61.505 17.9659 60.1726 17.5995 59.0305 16.8665C57.8885 16.1279 56.9993 15.0881 56.3629 13.7472C55.7322 12.4006 55.4169 10.8182 55.4169 9.00002C55.4169 7.6307 55.5987 6.39491 55.9624 5.29264C56.326 4.19036 56.8402 3.24718 57.505 2.46309C58.1754 1.679 58.968 1.07957 59.8828 0.664795C60.7976 0.24434 61.8089 0.0341125 62.9169 0.0341125C63.8714 0.0341125 64.7436 0.18468 65.5334 0.485816C66.3288 0.786953 67.0277 1.20173 67.63 1.73014C68.2379 2.25286 68.7351 2.85798 69.1214 3.54548C69.5135 4.22729 69.7777 4.95457 69.9141 5.72729H68.2777ZM73.6747 17.7273V4.63639H75.1491V6.64775H75.2599C75.5213 5.98866 75.9759 5.45741 76.6236 5.054C77.277 4.64491 78.0156 4.44036 78.8395 4.44036C78.9645 4.44036 79.1037 4.4432 79.2571 4.44889C79.4105 4.45457 79.5384 4.46025 79.6406 4.46593V6.00854C79.5724 5.99718 79.4531 5.98014 79.2827 5.95741C79.1122 5.93468 78.9276 5.92332 78.7287 5.92332C78.0469 5.92332 77.4389 6.0682 76.9048 6.35798C76.3764 6.64207 75.9588 7.03695 75.652 7.54264C75.3452 8.04832 75.1918 8.62502 75.1918 9.27275V17.7273H73.6747ZM85.8857 18.0256C85.0959 18.0256 84.3743 17.8722 83.7209 17.5654C83.0675 17.2529 82.5476 16.804 82.1612 16.2188C81.7749 15.6279 81.5817 14.912 81.5817 14.071C81.5817 13.4233 81.7038 12.8779 81.9482 12.4347C82.1925 11.9915 82.5391 11.6279 82.9879 11.3438C83.4368 11.0597 83.968 10.8352 84.5817 10.6705C85.1953 10.5057 85.8714 10.3779 86.6101 10.287C87.343 10.196 87.9624 10.1165 88.468 10.0483C88.9794 9.98014 89.3686 9.87218 89.6357 9.72445C89.9027 9.57673 90.0362 9.33809 90.0362 9.00854V8.70173C90.0362 7.80968 89.7692 7.10798 89.2351 6.59661C88.7067 6.07957 87.9453 5.82104 86.951 5.82104C86.0078 5.82104 85.2379 6.02843 84.6413 6.4432C84.0504 6.85798 83.6357 7.34661 83.397 7.90911L81.9567 7.38923C82.2521 6.67332 82.6612 6.10229 83.1839 5.67616C83.7067 5.24434 84.2919 4.93468 84.9396 4.74718C85.5874 4.554 86.2436 4.45741 86.9084 4.45741C87.4084 4.45741 87.9283 4.52275 88.468 4.65343C89.0135 4.78411 89.5192 5.01138 89.9851 5.33525C90.451 5.65343 90.8288 6.09945 91.1186 6.67332C91.4084 7.2415 91.5533 7.96309 91.5533 8.83809V17.7273H90.0362V15.6563H89.9425C89.7607 16.0426 89.4908 16.4176 89.1328 16.7813C88.7749 17.1449 88.326 17.4432 87.7862 17.6762C87.2464 17.9091 86.6129 18.0256 85.8857 18.0256ZM86.0902 16.6364C86.897 16.6364 87.5959 16.4574 88.1868 16.0995C88.7777 15.7415 89.2322 15.2671 89.5504 14.6762C89.8743 14.0796 90.0362 13.4233 90.0362 12.7074V10.8154C89.9226 10.9233 89.7322 11.0199 89.4652 11.1051C89.2038 11.1904 88.8999 11.2671 88.5533 11.3352C88.2124 11.3977 87.8714 11.4517 87.5305 11.4972C87.1896 11.5426 86.8828 11.5824 86.6101 11.6165C85.8714 11.7074 85.2408 11.8495 84.718 12.0426C84.1953 12.2358 83.7947 12.5029 83.5163 12.8438C83.2379 13.179 83.0987 13.6108 83.0987 14.1392C83.0987 14.9347 83.3828 15.5512 83.951 15.9887C84.5192 16.4205 85.2322 16.6364 86.0902 16.6364ZM97.1058 9.54548V17.7273H95.5888V4.63639H97.0632V6.69036H97.1996C97.5064 6.01991 97.9837 5.48298 98.6314 5.07957C99.2848 4.67048 100.092 4.46593 101.052 4.46593C101.933 4.46593 102.705 4.65059 103.37 5.01991C104.04 5.38354 104.56 5.92048 104.93 6.6307C105.305 7.34093 105.492 8.21309 105.492 9.24718V17.7273H103.975V9.34093C103.975 8.26707 103.674 7.41764 103.072 6.79264C102.475 6.16764 101.674 5.85514 100.668 5.85514C99.9808 5.85514 99.37 6.00286 98.8359 6.29832C98.3018 6.59377 97.8786 7.01991 97.5661 7.57673C97.2592 8.12786 97.1058 8.78411 97.1058 9.54548ZM114.643 4.63639V5.95741H108.396V4.63639H114.643ZM110.348 1.50002H111.874V14.3097C111.874 14.8551 111.967 15.2841 112.155 15.5966C112.342 15.9034 112.587 16.1222 112.888 16.2529C113.189 16.3779 113.51 16.4404 113.851 16.4404C114.05 16.4404 114.22 16.429 114.362 16.4063C114.504 16.3779 114.629 16.3495 114.737 16.321L115.061 17.6932C114.913 17.75 114.732 17.8012 114.516 17.8466C114.3 17.8977 114.033 17.9233 113.714 17.9233C113.158 17.9233 112.621 17.8012 112.104 17.5568C111.592 17.3125 111.172 16.9489 110.842 16.4659C110.513 15.983 110.348 15.3835 110.348 14.6676V1.50002ZM126.65 7.50854L125.261 7.90059C125.124 7.50854 124.931 7.15343 124.681 6.83525C124.431 6.51707 124.104 6.26423 123.701 6.07673C123.303 5.88923 122.809 5.79548 122.218 5.79548C121.332 5.79548 120.604 6.0057 120.036 6.42616C119.468 6.84661 119.184 7.38923 119.184 8.054C119.184 8.6165 119.377 9.07389 119.763 9.42616C120.156 9.77275 120.758 10.0483 121.57 10.2529L123.548 10.7387C124.644 11.0057 125.465 11.429 126.011 12.0085C126.562 12.5881 126.837 13.3154 126.837 14.1904C126.837 14.929 126.633 15.5852 126.224 16.1591C125.815 16.733 125.244 17.1847 124.511 17.5142C123.783 17.8381 122.94 18 121.979 18C120.701 18 119.647 17.7131 118.817 17.1392C117.988 16.5597 117.457 15.7245 117.224 14.6335L118.681 14.2756C118.869 15.054 119.235 15.6421 119.781 16.0398C120.332 16.4375 121.056 16.6364 121.954 16.6364C122.96 16.6364 123.763 16.412 124.366 15.9631C124.968 15.5085 125.269 14.9404 125.269 14.2585C125.269 13.7301 125.093 13.287 124.741 12.929C124.388 12.5654 123.854 12.2983 123.138 12.1279L120.999 11.6165C119.863 11.3438 119.022 10.912 118.477 10.321C117.931 9.73014 117.658 8.99718 117.658 8.12218C117.658 7.40059 117.854 6.76707 118.246 6.22161C118.638 5.67048 119.178 5.23866 119.866 4.92616C120.553 4.61366 121.337 4.45741 122.218 4.45741C123.417 4.45741 124.374 4.73014 125.09 5.27559C125.812 5.81536 126.332 6.55968 126.65 7.50854ZM136.849 17.7273V16.5597L142.551 10.1506C143.295 9.30968 143.895 8.59093 144.349 7.99434C144.804 7.39775 145.134 6.84661 145.338 6.34093C145.548 5.83525 145.653 5.30968 145.653 4.76423C145.653 4.09945 145.497 3.51991 145.185 3.02559C144.878 2.52559 144.455 2.13638 143.915 1.85798C143.375 1.57957 142.767 1.44036 142.091 1.44036C141.375 1.44036 140.747 1.59377 140.207 1.90059C139.673 2.20741 139.259 2.62786 138.963 3.16195C138.668 3.69604 138.52 4.30968 138.52 5.00286H136.994C136.994 4.03695 137.216 3.18184 137.659 2.43752C138.108 1.68752 138.719 1.09945 139.491 0.673316C140.27 0.24718 141.151 0.0341125 142.134 0.0341125C143.105 0.0341125 143.969 0.24434 144.724 0.664795C145.48 1.07957 146.074 1.64491 146.506 2.36082C146.938 3.07673 147.153 3.87786 147.153 4.76423C147.153 5.40627 147.04 6.02843 146.812 6.6307C146.591 7.23298 146.207 7.90343 145.662 8.64207C145.116 9.3807 144.361 10.2841 143.395 11.3523L139.065 16.1847V16.2955H147.699V17.7273H136.849ZM156.918 17.9659C155.691 17.9659 154.643 17.6137 153.773 16.9091C152.91 16.1989 152.245 15.1733 151.779 13.8324C151.319 12.4915 151.089 10.8807 151.089 9.00002C151.089 7.12502 151.319 5.51991 151.779 4.18468C152.245 2.84377 152.913 1.8182 153.782 1.10798C154.657 0.392067 155.702 0.0341125 156.918 0.0341125C158.134 0.0341125 159.177 0.392067 160.046 1.10798C160.921 1.8182 161.589 2.84377 162.049 4.18468C162.515 5.51991 162.748 7.12502 162.748 9.00002C162.748 10.8807 162.515 12.4915 162.049 13.8324C161.589 15.1733 160.924 16.1989 160.055 16.9091C159.191 17.6137 158.146 17.9659 156.918 17.9659ZM156.918 16.5341C158.265 16.5341 159.316 15.8779 160.072 14.5654C160.827 13.2472 161.205 11.3921 161.205 9.00002C161.205 7.40911 161.032 6.05116 160.685 4.92616C160.344 3.79548 159.853 2.93184 159.211 2.33525C158.575 1.73866 157.81 1.44036 156.918 1.44036C155.583 1.44036 154.535 2.10514 153.773 3.43468C153.012 4.75854 152.631 6.61366 152.631 9.00002C152.631 10.5909 152.802 11.9489 153.143 13.0739C153.489 14.1989 153.981 15.0568 154.617 15.6477C155.259 16.2387 156.026 16.5341 156.918 16.5341ZM166.217 17.7273V16.5597L171.918 10.1506C172.663 9.30968 173.262 8.59093 173.717 7.99434C174.171 7.39775 174.501 6.84661 174.705 6.34093C174.915 5.83525 175.021 5.30968 175.021 4.76423C175.021 4.09945 174.864 3.51991 174.552 3.02559C174.245 2.52559 173.822 2.13638 173.282 1.85798C172.742 1.57957 172.134 1.44036 171.458 1.44036C170.742 1.44036 170.114 1.59377 169.575 1.90059C169.04 2.20741 168.626 2.62786 168.33 3.16195C168.035 3.69604 167.887 4.30968 167.887 5.00286H166.362C166.362 4.03695 166.583 3.18184 167.026 2.43752C167.475 1.68752 168.086 1.09945 168.859 0.673316C169.637 0.24718 170.518 0.0341125 171.501 0.0341125C172.472 0.0341125 173.336 0.24434 174.092 0.664795C174.847 1.07957 175.441 1.64491 175.873 2.36082C176.305 3.07673 176.521 3.87786 176.521 4.76423C176.521 5.40627 176.407 6.02843 176.18 6.6307C175.958 7.23298 175.575 7.90343 175.029 8.64207C174.484 9.3807 173.728 10.2841 172.762 11.3523L168.433 16.1847V16.2955H177.066V17.7273H166.217ZM186.362 17.9659C185.641 17.9602 184.936 17.8154 184.249 17.5313C183.561 17.2415 182.942 16.7784 182.391 16.1421C181.839 15.5 181.402 14.6534 181.078 13.6023C180.754 12.5512 180.592 11.2585 180.592 9.72445C180.592 8.304 180.717 7.00286 180.967 5.82104C181.217 4.63923 181.592 3.6165 182.092 2.75286C182.592 1.88923 183.217 1.22161 183.967 0.750022C184.717 0.272749 185.595 0.0341125 186.601 0.0341125C187.544 0.0341125 188.376 0.230135 189.098 0.622181C189.82 1.00854 190.405 1.54832 190.854 2.2415C191.303 2.93468 191.584 3.73298 191.697 4.63639H190.129C189.97 3.71593 189.592 2.95741 188.996 2.36082C188.399 1.76423 187.601 1.46593 186.601 1.46593C185.169 1.46593 184.061 2.1307 183.277 3.46025C182.493 4.78411 182.098 6.66479 182.092 9.10229H182.203C182.482 8.58525 182.839 8.13923 183.277 7.76423C183.72 7.38354 184.223 7.08809 184.786 6.87786C185.348 6.66195 185.939 6.554 186.558 6.554C187.53 6.554 188.419 6.80116 189.226 7.29548C190.033 7.78411 190.678 8.45741 191.161 9.31536C191.643 10.1676 191.885 11.1421 191.885 12.2387C191.885 13.2784 191.655 14.2358 191.195 15.1108C190.74 15.9858 190.098 16.6818 189.268 17.1989C188.445 17.7159 187.476 17.9716 186.362 17.9659ZM186.362 16.5341C187.124 16.5341 187.803 16.3409 188.399 15.9546C189.001 15.5682 189.476 15.0512 189.822 14.4034C190.169 13.75 190.342 13.0284 190.342 12.2387C190.342 11.4489 190.169 10.733 189.822 10.0909C189.476 9.44889 189.001 8.93752 188.399 8.55684C187.803 8.17616 187.124 7.98582 186.362 7.98582C185.783 7.98582 185.243 8.10514 184.743 8.34377C184.243 8.57673 183.808 8.89775 183.439 9.30684C183.075 9.71025 182.797 10.1733 182.604 10.696C182.416 11.2188 182.345 11.7671 182.391 12.3409C182.453 13.1421 182.661 13.8608 183.013 14.4972C183.371 15.1279 183.837 15.625 184.411 15.9887C184.99 16.3523 185.641 16.5341 186.362 16.5341Z" fill="black"/>
</svg>
