<svg width="260" height="34" viewBox="0 0 260 34" fill="none" xmlns="http://www.w3.org/2000/svg">
<path d="M3.4199 3.276V28.08H-9.76026e-05V3.276H3.4199ZM15.5851 8.676C16.8811 8.676 18.0451 8.856 19.0771 9.216C20.1091 9.576 21.0931 10.116 22.0291 10.836L20.6251 12.924C19.7611 12.372 18.9331 11.964 18.1411 11.7C17.3731 11.436 16.5571 11.304 15.6931 11.304C14.6131 11.304 13.7611 11.532 13.1371 11.988C12.5131 12.42 12.2011 13.02 12.2011 13.788C12.2011 14.556 12.4891 15.156 13.0651 15.588C13.6651 16.02 14.7331 16.44 16.2691 16.848C18.3811 17.376 19.9531 18.096 20.9851 19.008C22.0411 19.92 22.5691 21.168 22.5691 22.752C22.5691 24.624 21.8371 26.052 20.3731 27.036C18.9331 28.02 17.1691 28.512 15.0811 28.512C12.2011 28.512 9.81309 27.684 7.91709 26.028L9.68109 24.012C11.2891 25.236 13.0651 25.848 15.0091 25.848C16.2571 25.848 17.2411 25.596 17.9611 25.092C18.7051 24.564 19.0771 23.856 19.0771 22.968C19.0771 22.32 18.9451 21.804 18.6811 21.42C18.4171 21.012 17.9611 20.664 17.3131 20.376C16.6651 20.064 15.7171 19.74 14.4691 19.404C12.4531 18.876 10.9891 18.168 10.0771 17.28C9.18909 16.392 8.74509 15.264 8.74509 13.896C8.74509 12.912 9.03309 12.024 9.60909 11.232C10.2091 10.416 11.0251 9.792 12.0571 9.36C13.1131 8.904 14.2891 8.676 15.5851 8.676ZM36.8178 27.216C35.5698 28.08 34.1538 28.512 32.5698 28.512C30.9618 28.512 29.7018 28.056 28.7898 27.144C27.9018 26.208 27.4578 24.864 27.4578 23.112V11.664H24.1458V9.108H27.4578V4.824L30.7698 4.428V9.108H35.2698L34.9098 11.664H30.7698V22.968C30.7698 23.952 30.9378 24.672 31.2738 25.128C31.6338 25.56 32.2218 25.776 33.0378 25.776C33.7818 25.776 34.6218 25.524 35.5578 25.02L36.8178 27.216ZM49.5736 2.844C51.1336 2.844 52.4776 3.072 53.6056 3.528C54.7576 3.96 55.8976 4.644 57.0256 5.58L55.0096 7.668C54.1216 6.948 53.2696 6.432 52.4536 6.12C51.6376 5.808 50.6776 5.652 49.5736 5.652C48.3016 5.652 47.1256 6 46.0456 6.696C44.9896 7.368 44.1256 8.46 43.4536 9.972C42.7816 11.46 42.4456 13.356 42.4456 15.66C42.4456 19.14 43.0096 21.684 44.1376 23.292C45.2896 24.9 46.9816 25.704 49.2136 25.704C51.0376 25.704 52.6096 25.332 53.9296 24.588V17.1H49.5376L49.1416 14.328H57.3136V26.316C54.7456 27.78 52.0456 28.512 49.2136 28.512C45.9496 28.512 43.3936 27.42 41.5456 25.236C39.7216 23.052 38.8096 19.86 38.8096 15.66C38.8096 12.972 39.2896 10.668 40.2496 8.748C41.2336 6.804 42.5416 5.34 44.1736 4.356C45.8296 3.348 47.6296 2.844 49.5736 2.844ZM71.2045 8.676C71.8765 8.676 72.5005 8.748 73.0765 8.892L72.4645 12.132C71.8885 11.988 71.3365 11.916 70.8085 11.916C69.6325 11.916 68.6845 12.348 67.9645 13.212C67.2445 14.076 66.6805 15.42 66.2725 17.244V28.08H62.9605V9.108H65.8045L66.1285 12.96C66.6325 11.544 67.3165 10.476 68.1805 9.756C69.0445 9.036 70.0525 8.676 71.2045 8.676ZM88.3616 23.652C88.3616 24.42 88.4936 24.996 88.7576 25.38C89.0216 25.74 89.4176 26.016 89.9456 26.208L89.1896 28.512C88.2056 28.392 87.4136 28.116 86.8136 27.684C86.2136 27.252 85.7696 26.58 85.4816 25.668C84.2096 27.564 82.3256 28.512 79.8296 28.512C77.9576 28.512 76.4816 27.984 75.4016 26.928C74.3216 25.872 73.7816 24.492 73.7816 22.788C73.7816 20.772 74.5016 19.224 75.9416 18.144C77.4056 17.064 79.4696 16.524 82.1336 16.524H85.0496V15.12C85.0496 13.776 84.7256 12.816 84.0776 12.24C83.4296 11.664 82.4336 11.376 81.0896 11.376C79.6976 11.376 77.9936 11.712 75.9776 12.384L75.1496 9.972C77.5016 9.108 79.6856 8.676 81.7016 8.676C83.9336 8.676 85.6016 9.228 86.7056 10.332C87.8096 11.412 88.3616 12.96 88.3616 14.976V23.652ZM80.5856 26.028C82.4816 26.028 83.9696 25.044 85.0496 23.076V18.72H82.5656C79.0616 18.72 77.3096 20.016 77.3096 22.608C77.3096 23.736 77.5856 24.588 78.1376 25.164C78.6896 25.74 79.5056 26.028 80.5856 26.028ZM104.092 8.676C105.82 8.676 107.164 9.192 108.124 10.224C109.108 11.256 109.6 12.672 109.6 14.472V28.08H106.288V14.94C106.288 13.596 106.036 12.648 105.532 12.096C105.028 11.544 104.284 11.268 103.3 11.268C102.292 11.268 101.404 11.556 100.636 12.132C99.8677 12.708 99.1477 13.536 98.4757 14.616V28.08H95.1637V9.108H98.0077L98.2957 11.916C98.9677 10.908 99.7957 10.116 100.78 9.54C101.788 8.964 102.892 8.676 104.092 8.676ZM125.833 27.216C124.585 28.08 123.169 28.512 121.585 28.512C119.977 28.512 118.717 28.056 117.805 27.144C116.917 26.208 116.473 24.864 116.473 23.112V11.664H113.161V9.108H116.473V4.824L119.785 4.428V9.108H124.285L123.925 11.664H119.785V22.968C119.785 23.952 119.953 24.672 120.289 25.128C120.649 25.56 121.237 25.776 122.053 25.776C122.797 25.776 123.637 25.524 124.573 25.02L125.833 27.216ZM134.413 8.676C135.709 8.676 136.873 8.856 137.905 9.216C138.937 9.576 139.921 10.116 140.857 10.836L139.453 12.924C138.589 12.372 137.761 11.964 136.969 11.7C136.201 11.436 135.385 11.304 134.521 11.304C133.441 11.304 132.589 11.532 131.965 11.988C131.341 12.42 131.029 13.02 131.029 13.788C131.029 14.556 131.317 15.156 131.893 15.588C132.493 16.02 133.561 16.44 135.097 16.848C137.209 17.376 138.781 18.096 139.813 19.008C140.869 19.92 141.397 21.168 141.397 22.752C141.397 24.624 140.665 26.052 139.201 27.036C137.761 28.02 135.997 28.512 133.909 28.512C131.029 28.512 128.641 27.684 126.745 26.028L128.509 24.012C130.117 25.236 131.893 25.848 133.837 25.848C135.085 25.848 136.069 25.596 136.789 25.092C137.533 24.564 137.905 23.856 137.905 22.968C137.905 22.32 137.773 21.804 137.509 21.42C137.245 21.012 136.789 20.664 136.141 20.376C135.493 20.064 134.545 19.74 133.297 19.404C131.281 18.876 129.817 18.168 128.905 17.28C128.017 16.392 127.573 15.264 127.573 13.896C127.573 12.912 127.861 12.024 128.437 11.232C129.037 10.416 129.853 9.792 130.885 9.36C131.941 8.904 133.117 8.676 134.413 8.676ZM142.559 33.192V30.348H160.055V33.192H142.559ZM176.147 23.652C176.147 24.42 176.279 24.996 176.543 25.38C176.807 25.74 177.203 26.016 177.731 26.208L176.975 28.512C175.991 28.392 175.199 28.116 174.599 27.684C173.999 27.252 173.555 26.58 173.267 25.668C171.995 27.564 170.111 28.512 167.615 28.512C165.743 28.512 164.267 27.984 163.187 26.928C162.107 25.872 161.567 24.492 161.567 22.788C161.567 20.772 162.287 19.224 163.727 18.144C165.191 17.064 167.255 16.524 169.919 16.524H172.835V15.12C172.835 13.776 172.511 12.816 171.863 12.24C171.215 11.664 170.219 11.376 168.875 11.376C167.483 11.376 165.779 11.712 163.763 12.384L162.935 9.972C165.287 9.108 167.471 8.676 169.487 8.676C171.719 8.676 173.387 9.228 174.491 10.332C175.595 11.412 176.147 12.96 176.147 14.976V23.652ZM168.371 26.028C170.267 26.028 171.755 25.044 172.835 23.076V18.72H170.351C166.847 18.72 165.095 20.016 165.095 22.608C165.095 23.736 165.371 24.588 165.923 25.164C166.475 25.74 167.291 26.028 168.371 26.028ZM197.637 1.476V28.08H194.721L194.397 25.452C193.773 26.412 192.993 27.168 192.057 27.72C191.121 28.248 190.077 28.512 188.925 28.512C186.669 28.512 184.905 27.624 183.633 25.848C182.385 24.072 181.761 21.684 181.761 18.684C181.761 16.74 182.061 15.012 182.661 13.5C183.261 11.988 184.125 10.812 185.253 9.972C186.381 9.108 187.701 8.676 189.213 8.676C191.157 8.676 192.861 9.456 194.325 11.016V1.08L197.637 1.476ZM189.645 25.884C190.653 25.884 191.517 25.656 192.237 25.2C192.957 24.72 193.653 24.012 194.325 23.076V13.788C193.701 12.972 193.029 12.36 192.309 11.952C191.613 11.52 190.821 11.304 189.933 11.304C188.469 11.304 187.329 11.916 186.513 13.14C185.721 14.364 185.325 16.188 185.325 18.612C185.325 21.06 185.697 22.884 186.441 24.084C187.185 25.284 188.253 25.884 189.645 25.884ZM223.508 8.676C225.068 8.676 226.316 9.204 227.252 10.26C228.188 11.292 228.656 12.696 228.656 14.472V28.08H225.344V14.94C225.344 12.492 224.456 11.268 222.68 11.268C221.744 11.268 220.952 11.544 220.304 12.096C219.656 12.624 218.96 13.464 218.216 14.616V28.08H214.904V14.94C214.904 12.492 214.016 11.268 212.24 11.268C211.28 11.268 210.476 11.544 209.828 12.096C209.18 12.648 208.496 13.488 207.776 14.616V28.08H204.464V9.108H207.308L207.596 11.88C209.012 9.744 210.836 8.676 213.068 8.676C214.244 8.676 215.24 8.976 216.056 9.576C216.896 10.176 217.496 11.016 217.856 12.096C218.6 10.992 219.416 10.152 220.304 9.576C221.216 8.976 222.284 8.676 223.508 8.676ZM238.644 9.108V28.08H235.332V9.108H238.644ZM236.952 7.15256e-07C237.648 7.15256e-07 238.212 0.216001 238.644 0.648001C239.076 1.08 239.292 1.62 239.292 2.268C239.292 2.916 239.076 3.456 238.644 3.888C238.212 4.296 237.648 4.5 236.952 4.5C236.28 4.5 235.728 4.296 235.296 3.888C234.864 3.456 234.648 2.916 234.648 2.268C234.648 1.62 234.864 1.08 235.296 0.648001C235.728 0.216001 236.28 7.15256e-07 236.952 7.15256e-07ZM254.42 8.676C256.148 8.676 257.492 9.192 258.452 10.224C259.436 11.256 259.928 12.672 259.928 14.472V28.08H256.616V14.94C256.616 13.596 256.364 12.648 255.86 12.096C255.356 11.544 254.612 11.268 253.628 11.268C252.62 11.268 251.732 11.556 250.964 12.132C250.196 12.708 249.476 13.536 248.804 14.616V28.08H245.492V9.108H248.336L248.624 11.916C249.296 10.908 250.124 10.116 251.108 9.54C252.116 8.964 253.22 8.676 254.42 8.676Z" fill="black"/>
</svg>
