<svg width="142" height="26" viewBox="0 0 142 26" fill="none" xmlns="http://www.w3.org/2000/svg">
<path d="M3.42 0.432V25.236H1.57952e-06V0.432H3.42ZM15.5852 5.832C16.8812 5.832 18.0452 6.012 19.0772 6.372C20.1092 6.732 21.0932 7.272 22.0292 7.992L20.6252 10.08C19.7612 9.528 18.9332 9.12 18.1412 8.856C17.3732 8.592 16.5572 8.46 15.6932 8.46C14.6132 8.46 13.7612 8.688 13.1372 9.144C12.5132 9.576 12.2012 10.176 12.2012 10.944C12.2012 11.712 12.4892 12.312 13.0652 12.744C13.6652 13.176 14.7332 13.596 16.2692 14.004C18.3812 14.532 19.9532 15.252 20.9852 16.164C22.0412 17.076 22.5692 18.324 22.5692 19.908C22.5692 21.78 21.8372 23.208 20.3732 24.192C18.9332 25.176 17.1692 25.668 15.0812 25.668C12.2012 25.668 9.81319 24.84 7.91719 23.184L9.68119 21.168C11.2892 22.392 13.0652 23.004 15.0092 23.004C16.2572 23.004 17.2412 22.752 17.9612 22.248C18.7052 21.72 19.0772 21.012 19.0772 20.124C19.0772 19.476 18.9452 18.96 18.6812 18.576C18.4172 18.168 17.9612 17.82 17.3132 17.532C16.6652 17.22 15.7172 16.896 14.4692 16.56C12.4532 16.032 10.9892 15.324 10.0772 14.436C9.18919 13.548 8.74519 12.42 8.74519 11.052C8.74519 10.068 9.03319 9.18 9.60919 8.388C10.2092 7.572 11.0252 6.948 12.0572 6.516C13.1132 6.06 14.2892 5.832 15.5852 5.832ZM36.8179 24.372C35.5699 25.236 34.1539 25.668 32.5699 25.668C30.9619 25.668 29.7019 25.212 28.7899 24.3C27.9019 23.364 27.4579 22.02 27.4579 20.268V8.82H24.1459V6.264H27.4579V1.98L30.7699 1.584V6.264H35.2699L34.9099 8.82H30.7699V20.124C30.7699 21.108 30.9379 21.828 31.2739 22.284C31.6339 22.716 32.2219 22.932 33.0379 22.932C33.7819 22.932 34.6219 22.68 35.5579 22.176L36.8179 24.372ZM49.5737 -1.19209e-06C51.1337 -1.19209e-06 52.4777 0.227999 53.6057 0.683999C54.7577 1.116 55.8977 1.8 57.0257 2.736L55.0097 4.824C54.1217 4.104 53.2697 3.588 52.4537 3.276C51.6377 2.964 50.6777 2.808 49.5737 2.808C48.3017 2.808 47.1257 3.156 46.0457 3.852C44.9897 4.524 44.1257 5.616 43.4537 7.128C42.7817 8.616 42.4457 10.512 42.4457 12.816C42.4457 16.296 43.0097 18.84 44.1377 20.448C45.2897 22.056 46.9817 22.86 49.2137 22.86C51.0377 22.86 52.6097 22.488 53.9297 21.744V14.256H49.5377L49.1417 11.484H57.3137V23.472C54.7457 24.936 52.0457 25.668 49.2137 25.668C45.9497 25.668 43.3937 24.576 41.5457 22.392C39.7217 20.208 38.8097 17.016 38.8097 12.816C38.8097 10.128 39.2897 7.824 40.2497 5.904C41.2337 3.96 42.5417 2.496 44.1737 1.512C45.8297 0.503999 47.6297 -1.19209e-06 49.5737 -1.19209e-06ZM71.2046 5.832C71.8766 5.832 72.5006 5.904 73.0766 6.048L72.4646 9.288C71.8886 9.144 71.3366 9.072 70.8086 9.072C69.6326 9.072 68.6846 9.504 67.9646 10.368C67.2446 11.232 66.6806 12.576 66.2726 14.4V25.236H62.9606V6.264H65.8046L66.1286 10.116C66.6326 8.7 67.3166 7.632 68.1806 6.912C69.0446 6.192 70.0526 5.832 71.2046 5.832ZM88.3617 20.808C88.3617 21.576 88.4937 22.152 88.7577 22.536C89.0217 22.896 89.4177 23.172 89.9457 23.364L89.1897 25.668C88.2057 25.548 87.4137 25.272 86.8137 24.84C86.2137 24.408 85.7697 23.736 85.4817 22.824C84.2097 24.72 82.3257 25.668 79.8297 25.668C77.9577 25.668 76.4817 25.14 75.4017 24.084C74.3217 23.028 73.7817 21.648 73.7817 19.944C73.7817 17.928 74.5017 16.38 75.9417 15.3C77.4057 14.22 79.4697 13.68 82.1337 13.68H85.0497V12.276C85.0497 10.932 84.7257 9.972 84.0777 9.396C83.4297 8.82 82.4337 8.532 81.0897 8.532C79.6977 8.532 77.9937 8.868 75.9777 9.54L75.1497 7.128C77.5017 6.264 79.6857 5.832 81.7017 5.832C83.9337 5.832 85.6017 6.384 86.7057 7.488C87.8097 8.568 88.3617 10.116 88.3617 12.132V20.808ZM80.5857 23.184C82.4817 23.184 83.9697 22.2 85.0497 20.232V15.876H82.5657C79.0617 15.876 77.3097 17.172 77.3097 19.764C77.3097 20.892 77.5857 21.744 78.1377 22.32C78.6897 22.896 79.5057 23.184 80.5857 23.184ZM104.092 5.832C105.82 5.832 107.164 6.348 108.124 7.38C109.108 8.412 109.6 9.828 109.6 11.628V25.236H106.288V12.096C106.288 10.752 106.036 9.804 105.532 9.252C105.028 8.7 104.284 8.424 103.3 8.424C102.292 8.424 101.404 8.712 100.636 9.288C99.8678 9.864 99.1478 10.692 98.4758 11.772V25.236H95.1638V6.264H98.0078L98.2958 9.072C98.9678 8.064 99.7958 7.272 100.78 6.696C101.788 6.12 102.892 5.832 104.092 5.832ZM125.834 24.372C124.586 25.236 123.17 25.668 121.586 25.668C119.978 25.668 118.718 25.212 117.806 24.3C116.918 23.364 116.474 22.02 116.474 20.268V8.82H113.162V6.264H116.474V1.98L119.786 1.584V6.264H124.286L123.926 8.82H119.786V20.124C119.786 21.108 119.954 21.828 120.29 22.284C120.65 22.716 121.238 22.932 122.054 22.932C122.798 22.932 123.638 22.68 124.574 22.176L125.834 24.372ZM134.413 5.832C135.709 5.832 136.873 6.012 137.905 6.372C138.937 6.732 139.921 7.272 140.857 7.992L139.453 10.08C138.589 9.528 137.761 9.12 136.969 8.856C136.201 8.592 135.385 8.46 134.521 8.46C133.441 8.46 132.589 8.688 131.965 9.144C131.341 9.576 131.029 10.176 131.029 10.944C131.029 11.712 131.317 12.312 131.893 12.744C132.493 13.176 133.561 13.596 135.097 14.004C137.209 14.532 138.781 15.252 139.813 16.164C140.869 17.076 141.397 18.324 141.397 19.908C141.397 21.78 140.665 23.208 139.201 24.192C137.761 25.176 135.997 25.668 133.909 25.668C131.029 25.668 128.641 24.84 126.745 23.184L128.509 21.168C130.117 22.392 131.893 23.004 133.837 23.004C135.085 23.004 136.069 22.752 136.789 22.248C137.533 21.72 137.905 21.012 137.905 20.124C137.905 19.476 137.773 18.96 137.509 18.576C137.245 18.168 136.789 17.82 136.141 17.532C135.493 17.22 134.545 16.896 133.297 16.56C131.281 16.032 129.817 15.324 128.905 14.436C128.017 13.548 127.573 12.42 127.573 11.052C127.573 10.068 127.861 9.18 128.437 8.388C129.037 7.572 129.853 6.948 130.885 6.516C131.941 6.06 133.117 5.832 134.413 5.832Z" fill="black"/>
</svg>
